<?xml version="1.0" encoding="UTF-8"?>
<!DOCTYPE svg PUBLIC "-//W3C//DTD SVG 1.1//EN" "http://www.w3.org/Graphics/SVG/1.1/DTD/svg11.dtd">
<svg version="1.1" id="Layer_1" xmlns="http://www.w3.org/2000/svg" xmlns:xlink="http://www.w3.org/1999/xlink" x="0px" y="0px" width="612px" height="792px" viewBox="0 0 612 792" enable-background="new 0 0 612 792" xml:space="preserve">
	<g id="background">
		<rect x="1.502" fill="none" width="612" height="792"/>
	</g>
	<g id="left_vertical_gradient">
		<linearGradient id="SVGID_1_" gradientUnits="userSpaceOnUse" x1="28.5415" y1="527.6387" x2="129.0415" y2="527.6387">
			<stop offset="0" style="stop-color:#F2F2F2"/>
			<stop offset="1" style="stop-color:#CCCCCC"/>
		</linearGradient>
		<rect x="28.542" y="363.313" fill="url(#SVGID_1_)" width="100.5" height="328.65"/>
	</g>
	<g id="tcm-logo">
		<circle fill="#231F20" stroke="#231F20" stroke-width="0.7" cx="78.792" cy="691.965" r="53.935"/>
		<linearGradient id="SVGID_2_" gradientUnits="userSpaceOnUse" x1="28.0962" y1="673.5127" x2="129.4885" y2="710.4164">
			<stop offset="0" style="stop-color:#FFFFFF"/>
			<stop offset="1" style="stop-color:#808285"/>
		</linearGradient>
		<circle fill="url(#SVGID_2_)" cx="78.792" cy="691.965" r="53.935"/>
		<linearGradient id="SVGID_3_" gradientUnits="userSpaceOnUse" x1="30.0742" y1="674.2314" x2="127.5104" y2="709.6953">
			<stop offset="0" style="stop-color:#808285"/>
			<stop offset="1" style="stop-color:#FFFFFF"/>
		</linearGradient>
		<circle fill="url(#SVGID_3_)" cx="78.792" cy="691.965" r="51.83"/>
		<linearGradient id="SVGID_4_" gradientUnits="userSpaceOnUse" x1="31.0435" y1="674.5859" x2="126.5397" y2="709.3438">
			<stop offset="0" style="stop-color:#FFFFFF"/>
			<stop offset="1" style="stop-color:#808285"/>
		</linearGradient>
		<circle fill="url(#SVGID_4_)" cx="78.792" cy="691.965" r="50.799"/>
		<linearGradient id="SVGID_5_" gradientUnits="userSpaceOnUse" x1="39.5342" y1="677.6748" x2="118.0499" y2="706.2522">
			<stop offset="0" style="stop-color:#808285"/>
			<stop offset="1" style="stop-color:#FFFFFF"/>
		</linearGradient>
		<circle fill="url(#SVGID_5_)" cx="78.792" cy="691.964" r="41.766"/>
		<linearGradient id="SVGID_6_" gradientUnits="userSpaceOnUse" x1="41.5381" y1="678.4043" x2="116.0463" y2="705.5231">
			<stop offset="0" style="stop-color:#FFFFFF"/>
			<stop offset="1" style="stop-color:#808285"/>
		</linearGradient>
		<circle fill="url(#SVGID_6_)" cx="78.792" cy="691.964" r="39.634"/>
		<g>
			<path fill="#231F20" stroke="#231F20" stroke-width="0.35" stroke-linecap="round" stroke-linejoin="round" d="M34.765,671.701    l-1.106,2.338l-0.771-0.364l2.621-5.54l0.771,0.364l-1.106,2.339l4.771,2.256l-0.409,0.863L34.765,671.701z"/>
			<path fill="#231F20" stroke="#231F20" stroke-width="0.35" stroke-linecap="round" stroke-linejoin="round" d="M35.772,667.463    l0.536-0.772l4.538,1.326l-2.802-3.825l0.453-0.652l4.563,1.289l-2.828-3.789l0.537-0.772l3.861,5.187l-0.394,0.568l-4.807-1.352    l2.945,4.031l-0.385,0.557L35.772,667.463z"/>
			<path fill="#231F20" stroke="#231F20" stroke-width="0.35" stroke-linecap="round" stroke-linejoin="round" d="M42.016,659.096    l0.654-0.717l4.549,4.151l-0.654,0.716L42.016,659.096z"/>
			<path fill="#231F20" stroke="#231F20" stroke-width="0.35" stroke-linecap="round" stroke-linejoin="round" d="M44.44,656.494    l0.377-0.328l5.766,0.694l-2.826-3.25l0.71-0.618l4.021,4.626l-0.377,0.328l-5.756-0.683l2.816,3.238l-0.71,0.617L44.44,656.494z"/>
			<path fill="#231F20" stroke="#231F20" stroke-width="0.35" stroke-linecap="round" stroke-linejoin="round" d="M60.774,652.925    c-1.972,0.921-3.941,0.316-4.726-1.362c-0.784-1.678,0.01-3.591,1.981-4.512c1.226-0.572,2.475-0.571,3.46-0.025l-0.468,0.803    c-0.746-0.414-1.686-0.413-2.618,0.022c-1.439,0.672-2.035,2.069-1.469,3.282c0.566,1.212,2.035,1.646,3.459,0.979    c0.999-0.466,1.551-1.194,1.744-2.274l0.917,0.155C62.889,651.271,62.092,652.309,60.774,652.925z"/>
			<path fill="#231F20" stroke="#231F20" stroke-width="0.35" stroke-linecap="round" stroke-linejoin="round" d="M63.135,645.179    l0.923-0.299l1.896,5.86l-0.923,0.299L63.135,645.179z"/>
			<path fill="#231F20" stroke="#231F20" stroke-width="0.35" stroke-linecap="round" stroke-linejoin="round" d="M68.068,644.699    l-2.529,0.545l-0.18-0.833l5.993-1.292l0.18,0.834l-2.529,0.545l1.112,5.159l-0.934,0.201L68.068,644.699z"/>
			<path fill="#231F20" stroke="#231F20" stroke-width="0.35" stroke-linecap="round" stroke-linejoin="round" d="M72.706,643.013    l0.964-0.109l0.691,6.12l-0.964,0.109L72.706,643.013z"/>
			<path fill="#231F20" stroke="#231F20" stroke-width="0.35" stroke-linecap="round" stroke-linejoin="round" d="M76.281,642.615    l5.747,0.094l-0.015,0.896l-4.791-0.078l-0.025,1.529l3.146,0.051l-0.015,0.882l-3.145-0.052l-0.032,1.94l5.056,0.083    l-0.014,0.882l-6.011-0.099L76.281,642.615z"/>
			<path fill="#231F20" stroke="#231F20" stroke-width="0.35" stroke-linecap="round" stroke-linejoin="round" d="M83.439,647.359    c0.776,0.723,1.771,1.197,2.626,1.338c1.132,0.185,1.885-0.229,1.992-0.882c0.116-0.711-0.458-1.118-1.715-1.353    c-1.853-0.333-2.841-0.763-2.629-2.054c0.164-1.001,1.21-1.575,2.778-1.319c1.045,0.171,1.97,0.62,2.789,1.35l-0.607,0.705    c-0.698-0.65-1.568-1.075-2.336-1.201c-0.958-0.156-1.585,0.129-1.666,0.622c-0.095,0.58,0.503,0.842,1.766,1.048    c1.944,0.318,2.808,1.145,2.599,2.422c-0.175,1.073-1.326,1.824-3.009,1.549c-1.146-0.188-2.296-0.718-3.181-1.503L83.439,647.359    z"/>
			<path fill="#231F20" stroke="#231F20" stroke-width="0.35" stroke-linecap="round" stroke-linejoin="round" d="M97.116,646.057    l0.716,0.344l0.713,4.32l3.818-2.145l0.715,0.343l-2.652,5.525l-0.861-0.413l1.908-3.976l-3.596,2.057l-0.644-4.092l-1.908,3.976    l-0.861-0.414L97.116,646.057z"/>
			<path fill="#231F20" stroke="#231F20" stroke-width="0.35" stroke-linecap="round" stroke-linejoin="round" d="M107.005,651.521    l0.491,0.348l-0.976,6.82l-0.84-0.594l0.253-1.73l-2.639-1.869l-1.549,0.812l-0.828-0.587L107.005,651.521z M106.053,655.459    l0.388-2.607l-2.343,1.223L106.053,655.459z"/>
			<path fill="#231F20" stroke="#231F20" stroke-width="0.35" stroke-linecap="round" stroke-linejoin="round" d="M111.171,654.721    l0.689,0.661l-1.883,1.962l4.226,0.288l0.912,0.875l-3.362-0.212l-0.597,4.887l-0.774-0.743l0.497-4.209l-1.655-0.102    l-1.598,1.664l-0.689-0.661L111.171,654.721z"/>
			<path fill="#231F20" stroke="#231F20" stroke-width="0.35" stroke-linecap="round" stroke-linejoin="round" d="M116.513,660.1    l3.47,4.582l-0.714,0.541l-2.894-3.819l-1.218,0.923l1.899,2.508l-0.703,0.532l-1.899-2.508l-1.547,1.172l3.054,4.031    l-0.703,0.532l-3.63-4.792L116.513,660.1z"/>
			<path fill="#231F20" stroke="#231F20" stroke-width="0.35" stroke-linecap="round" stroke-linejoin="round" d="M116.212,670.32    l-0.441-0.848l5.425-2.821l1.946,3.743c0.577,1.108,0.362,2.064-0.59,2.561c-0.757,0.393-1.667,0.203-2.225-0.55l-1.6,2.754    l-0.482-0.926l1.573-2.773l-1.234-2.374L116.212,670.32z M120.887,671.567c0.305,0.587,0.729,0.765,1.211,0.514    c0.47-0.244,0.567-0.693,0.263-1.28l-1.506-2.895l-1.474,0.766L120.887,671.567z"/>
		</g>
		<g>
			<path fill="#7A0511" d="M34.765,671.701l-1.106,2.338l-0.771-0.364l2.621-5.54l0.771,0.364l-1.106,2.339l4.771,2.256l-0.409,0.863    L34.765,671.701z"/>
			<path fill="#7A0511" d="M35.772,667.463l0.536-0.772l4.538,1.326l-2.802-3.825l0.453-0.652l4.563,1.289l-2.828-3.789l0.537-0.772    l3.861,5.187l-0.394,0.568l-4.807-1.352l2.945,4.031l-0.385,0.557L35.772,667.463z"/>
			<path fill="#7A0511" d="M42.016,659.096l0.654-0.717l4.549,4.151l-0.654,0.716L42.016,659.096z"/>
			<path fill="#7A0511" d="M44.44,656.494l0.377-0.328l5.766,0.694l-2.826-3.25l0.71-0.618l4.021,4.626l-0.377,0.328l-5.756-0.683    l2.816,3.238l-0.71,0.617L44.44,656.494z"/>
			<path fill="#7A0511" d="M60.774,652.925c-1.972,0.921-3.941,0.316-4.726-1.362c-0.784-1.678,0.01-3.591,1.981-4.512    c1.226-0.572,2.475-0.571,3.46-0.025l-0.468,0.803c-0.746-0.414-1.686-0.413-2.618,0.022c-1.439,0.672-2.035,2.069-1.469,3.282    c0.566,1.212,2.035,1.646,3.459,0.979c0.999-0.466,1.551-1.194,1.744-2.274l0.917,0.155    C62.889,651.271,62.092,652.309,60.774,652.925z"/>
			<path fill="#7A0511" d="M63.135,645.179l0.923-0.299l1.896,5.86l-0.923,0.299L63.135,645.179z"/>
			<path fill="#7A0511" d="M68.068,644.699l-2.529,0.545l-0.18-0.833l5.993-1.292l0.18,0.834l-2.529,0.545l1.112,5.159l-0.934,0.201    L68.068,644.699z"/>
			<path fill="#7A0511" d="M72.706,643.013l0.964-0.109l0.691,6.12l-0.964,0.109L72.706,643.013z"/>
			<path fill="#7A0511" d="M76.281,642.615l5.747,0.094l-0.015,0.896l-4.791-0.078l-0.025,1.529l3.146,0.051l-0.015,0.882    l-3.145-0.052l-0.032,1.94l5.056,0.083l-0.014,0.882l-6.011-0.099L76.281,642.615z"/>
			<path fill="#7A0511" d="M83.439,647.359c0.776,0.723,1.771,1.197,2.626,1.338c1.132,0.185,1.885-0.229,1.992-0.882    c0.116-0.711-0.458-1.118-1.715-1.353c-1.853-0.333-2.841-0.763-2.629-2.054c0.164-1.001,1.21-1.575,2.778-1.319    c1.045,0.171,1.97,0.62,2.789,1.35l-0.607,0.705c-0.698-0.65-1.568-1.075-2.336-1.201c-0.958-0.156-1.585,0.129-1.666,0.622    c-0.095,0.58,0.503,0.842,1.766,1.048c1.944,0.318,2.808,1.145,2.599,2.422c-0.175,1.073-1.326,1.824-3.009,1.549    c-1.146-0.188-2.296-0.718-3.181-1.503L83.439,647.359z"/>
			<path fill="#7A0511" d="M97.116,646.057l0.716,0.344l0.713,4.32l3.818-2.145l0.715,0.343l-2.652,5.525l-0.861-0.413l1.908-3.976    l-3.596,2.057l-0.644-4.092l-1.908,3.976l-0.861-0.414L97.116,646.057z"/>
			<path fill="#7A0511" d="M107.005,651.521l0.491,0.348l-0.976,6.82l-0.84-0.594l0.253-1.73l-2.639-1.869l-1.549,0.812l-0.828-0.587    L107.005,651.521z M106.053,655.459l0.388-2.607l-2.343,1.223L106.053,655.459z"/>
			<path fill="#7A0511" d="M111.171,654.721l0.689,0.661l-1.883,1.962l4.226,0.288l0.912,0.875l-3.362-0.212l-0.597,4.887    l-0.774-0.743l0.497-4.209l-1.655-0.102l-1.598,1.664l-0.689-0.661L111.171,654.721z"/>
			<path fill="#7A0511" d="M116.513,660.1l3.47,4.582l-0.714,0.541l-2.894-3.819l-1.218,0.923l1.899,2.508l-0.703,0.532l-1.899-2.508    l-1.547,1.172l3.054,4.031l-0.703,0.532l-3.63-4.792L116.513,660.1z"/>
			<path fill="#7A0511" d="M116.212,670.32l-0.441-0.848l5.425-2.821l1.946,3.743c0.577,1.108,0.362,2.064-0.59,2.561    c-0.757,0.393-1.667,0.203-2.225-0.55l-1.6,2.754l-0.482-0.926l1.573-2.773l-1.234-2.374L116.212,670.32z M120.887,671.567    c0.305,0.587,0.729,0.765,1.211,0.514c0.47-0.244,0.567-0.693,0.263-1.28l-1.506-2.895l-1.474,0.766L120.887,671.567z"/>
		</g>
		<g>
			<path fill="#7A0511" d="M30.831,694.561l-0.04-0.516l3.314-0.257l0.04,0.517l-1.287,0.1l0.18,2.329l1.288-0.1l0.04,0.516    l-3.314,0.257l-0.04-0.517l1.542-0.119l-0.18-2.329L30.831,694.561z"/>
			<path fill="#7A0511" d="M34.699,699.297l0.055,0.322l-2.994,2.236l-0.093-0.55l0.762-0.565l-0.293-1.729l-0.905-0.284    l-0.092-0.542L34.699,699.297z M32.822,700.438l1.15-0.85l-1.367-0.432L32.822,700.438z"/>
			<path fill="#7A0511" d="M32.271,704.312c-0.299-1.141,0.215-2.132,1.186-2.387c0.971-0.256,1.914,0.354,2.213,1.494    c0.187,0.709,0.065,1.375-0.322,1.848l-0.383-0.328c0.293-0.356,0.384-0.858,0.243-1.397c-0.219-0.833-0.906-1.286-1.607-1.103    c-0.702,0.185-1.075,0.926-0.859,1.75c0.152,0.578,0.487,0.943,1.043,1.15l-0.172,0.475    C32.948,705.601,32.471,705.075,32.271,704.312z"/>
			<path fill="#7A0511" d="M36.318,705.997l0.177,0.487l-1.386,0.505l1.988,1.151l0.234,0.645l-1.585-0.908l-1.46,2.235l-0.199-0.547    l1.249-1.93l-0.781-0.445l-1.176,0.428l-0.177-0.487L36.318,705.997z"/>
			<path fill="#7A0511" d="M36.085,713.948l-0.245-0.456l2.929-1.572l1.452,2.704l-0.429,0.229l-1.207-2.247l-0.73,0.392l0.78,1.454    l-0.422,0.227l-0.78-1.454L36.085,713.948z"/>
			<path fill="#7A0511" d="M40.8,715.516l0.173,0.276l-1.912,3.21l-0.296-0.473l0.488-0.813l-0.931-1.486l-0.945,0.084l-0.292-0.467    L40.8,715.516z M39.502,717.288l0.738-1.225l-1.428,0.123L39.502,717.288z"/>
			<path fill="#7A0511" d="M40.466,721.066c-0.712-0.94-0.615-2.054,0.186-2.659c0.801-0.606,1.905-0.403,2.617,0.537    c0.443,0.586,0.585,1.248,0.407,1.832l-0.479-0.157c0.135-0.442,0.028-0.94-0.309-1.386c-0.52-0.686-1.329-0.844-1.907-0.406    c-0.578,0.438-0.642,1.266-0.126,1.946c0.361,0.477,0.81,0.687,1.404,0.666l0.021,0.504    C41.583,722.001,40.943,721.696,40.466,721.066z"/>
			<path fill="#7A0511" d="M45.045,721.97l-0.938-1.043l0.344-0.309l2.223,2.469l-0.344,0.31l-0.938-1.042l-2.127,1.913l-0.346-0.385    L45.045,721.97z"/>
			<path fill="#7A0511" d="M45.686,724.479c0.674-0.723,1.791-0.728,2.682,0.104c0.897,0.837,0.975,1.945,0.295,2.674    c-0.674,0.723-1.795,0.732-2.692-0.104C45.079,726.321,45.017,725.195,45.686,724.479z M48.272,726.893    c0.484-0.519,0.439-1.335-0.231-1.96c-0.665-0.62-1.477-0.614-1.966-0.09s-0.438,1.334,0.226,1.955    C46.977,727.428,47.789,727.411,48.272,726.893z"/>
			<path fill="#7A0511" d="M48.855,729.522l-0.412-0.314l2.01-2.637l1.82,1.387c0.539,0.411,0.654,0.931,0.301,1.394    c-0.28,0.367-0.771,0.484-1.218,0.243l-0.149,1.721l-0.45-0.343l0.132-1.725l-1.154-0.879L48.855,729.522z M51.437,729.056    c0.285,0.217,0.534,0.206,0.712-0.028c0.175-0.229,0.119-0.472-0.166-0.688l-1.408-1.073l-0.546,0.716L51.437,729.056z"/>
			<path fill="#7A0511" d="M53.728,730.923l-0.404-2.186l0.565,0.359l0.294,1.586l1.548-0.412l0.585,0.373l-2.153,0.547l-0.917,1.438    l-0.43-0.274L53.728,730.923z"/>
			<path fill="#7A0511" d="M70.768,735.976l0.426,0.06l1.08,2.115l1.619-1.737l0.427,0.061l-0.461,3.291l-0.514-0.072l0.332-2.367    l-1.52,1.654l-1.006-2.008l-0.332,2.367l-0.514-0.071L70.768,735.976z"/>
			<path fill="#7A0511" d="M75.458,736.526l0.525,0.036l-0.227,3.332l-0.524-0.036L75.458,736.526z"/>
			<path fill="#7A0511" d="M77.206,736.634l0.271,0.005l2.074,2.368l0.037-2.334l0.51,0.008l-0.053,3.322l-0.271-0.004l-2.074-2.36    l-0.038,2.326l-0.51-0.008L77.206,736.634z"/>
			<path fill="#7A0511" d="M81.157,736.619l0.27-0.022l2.3,2.149l-0.196-2.326l0.508-0.043l0.279,3.312l-0.27,0.022l-2.299-2.142    l0.194,2.318l-0.508,0.043L81.157,736.619z"/>
			<path fill="#7A0511" d="M85.166,736.229l3.07-0.539l0.084,0.479l-2.56,0.449l0.144,0.816l1.68-0.295l0.083,0.471l-1.68,0.295    l0.182,1.036l2.7-0.474l0.083,0.471l-3.211,0.563L85.166,736.229z"/>
			<path fill="#7A0511" d="M90.1,735.215l0.315-0.083l2.5,2.776l-0.539,0.143l-0.633-0.706l-1.695,0.448l-0.2,0.927l-0.532,0.142    L90.1,735.215z M91.409,736.979l-0.951-1.068l-0.305,1.4L91.409,736.979z"/>
			<path fill="#7A0511" d="M94.146,737.485l-0.487,0.176l-1.129-3.126l2.272-0.821c0.645-0.232,1.136-0.045,1.334,0.502    c0.178,0.495-0.038,1.022-0.645,1.242l-1.837,0.663L94.146,737.485z M95.273,735.019c0.337-0.121,0.46-0.344,0.363-0.613    c-0.095-0.263-0.324-0.358-0.647-0.241l-1.807,0.652l0.306,0.847L95.273,735.019z"/>
			<path fill="#7A0511" d="M96.943,734.685c-0.427-0.892-0.023-1.933,1.076-2.459c1.107-0.529,2.167-0.197,2.597,0.701    c0.427,0.892,0.027,1.939-1.08,2.469C98.436,735.923,97.366,735.568,96.943,734.685z M100.134,733.157    c-0.306-0.64-1.082-0.896-1.909-0.5c-0.819,0.393-1.111,1.149-0.801,1.797c0.31,0.646,1.083,0.896,1.902,0.503    C100.16,734.559,100.441,733.797,100.134,733.157z"/>
			<path fill="#7A0511" d="M100.611,730.997l0.445-0.266l1.458,2.444l2.123-1.267l0.245,0.411l-2.567,1.532L100.611,730.997z"/>
			<path fill="#7A0511" d="M103.65,729.104l0.435-0.296l1.878,2.762l-0.436,0.296L103.65,729.104z"/>
			<path fill="#7A0511" d="M106.518,730.14c0.573-0.041,1.129-0.26,1.501-0.548c0.491-0.381,0.605-0.833,0.386-1.116    c-0.239-0.309-0.612-0.231-1.171,0.182c-0.816,0.611-1.352,0.845-1.786,0.284c-0.336-0.435-0.177-1.062,0.503-1.59    c0.454-0.352,0.973-0.553,1.566-0.608l0.056,0.502c-0.517,0.037-1.006,0.225-1.34,0.483c-0.416,0.321-0.535,0.676-0.369,0.89    c0.195,0.253,0.52,0.112,1.068-0.312c0.845-0.654,1.491-0.691,1.921-0.137c0.361,0.467,0.233,1.2-0.497,1.767    c-0.498,0.386-1.133,0.646-1.771,0.706L106.518,730.14z"/>
			<path fill="#7A0511" d="M110.876,727.688c-0.005,0.006-0.018,0.017-0.023,0.021c-0.113,0.102-0.303,0.08-0.442-0.074    c-0.149-0.166-0.149-0.381-0.007-0.508c0.148-0.134,0.395-0.109,0.624,0.146c0.192,0.214,0.273,0.602,0.244,1.153l-0.197-0.005    C111.039,728.144,110.972,727.903,110.876,727.688z"/>
			<path fill="#7A0511" d="M111.906,722.032l0.276-0.33l2.367,0.205l-0.615-2.294l0.276-0.33l2.548,2.136l-0.333,0.396l-1.833-1.536    l0.599,2.166l-2.237-0.211l1.833,1.536l-0.333,0.397L111.906,722.032z"/>
			<path fill="#7A0511" d="M114.864,718.346l0.308-0.427l2.706,1.959l-0.309,0.426L114.864,718.346z"/>
			<path fill="#7A0511" d="M115.851,716.998l0.145-0.229l3.101-0.54l-1.975-1.246l0.272-0.431l2.811,1.772l-0.145,0.229l-3.095,0.544    l1.968,1.241l-0.272,0.432L115.851,716.998z"/>
			<path fill="#7A0511" d="M117.954,713.567l0.123-0.242l3.041-0.818l-2.08-1.062l0.232-0.454l2.96,1.513l-0.124,0.241l-3.034,0.821    l2.073,1.06l-0.232,0.454L117.954,713.567z"/>
			<path fill="#7A0511" d="M119.74,709.958l1.163-2.892l0.451,0.182l-0.97,2.411l0.769,0.31l0.637-1.583l0.444,0.179l-0.636,1.583    l0.976,0.393l1.023-2.545l0.444,0.179l-1.216,3.025L119.74,709.958z"/>
			<path fill="#7A0511" d="M123.529,706.982c0.443-0.366,0.77-0.867,0.905-1.317c0.179-0.595,0.01-1.029-0.333-1.133    c-0.375-0.112-0.634,0.167-0.849,0.826c-0.31,0.973-0.611,1.473-1.29,1.269c-0.527-0.159-0.761-0.763-0.513-1.587    c0.166-0.549,0.473-1.015,0.923-1.403l0.336,0.376c-0.398,0.329-0.688,0.767-0.811,1.171c-0.152,0.504-0.043,0.861,0.216,0.939    c0.306,0.092,0.488-0.211,0.688-0.875c0.309-1.022,0.814-1.428,1.485-1.226c0.565,0.171,0.887,0.843,0.62,1.728    c-0.182,0.603-0.549,1.184-1.033,1.604L123.529,706.982z"/>
			<path fill="#7A0511" d="M123.859,703.067c-0.969-0.193-1.562-1.14-1.324-2.336c0.239-1.204,1.141-1.854,2.118-1.659    c0.969,0.192,1.569,1.141,1.33,2.345C125.746,702.613,124.821,703.259,123.859,703.067z M124.549,699.596    c-0.696-0.139-1.366,0.33-1.545,1.229c-0.178,0.891,0.255,1.578,0.959,1.719c0.704,0.139,1.365-0.33,1.543-1.222    C125.687,700.415,125.245,699.734,124.549,699.596z"/>
			<path fill="#7A0511" d="M123.65,697.179l-0.152,1.395l-0.46-0.049l0.361-3.306l0.459,0.05l-0.152,1.396l2.845,0.311l-0.057,0.515    L123.65,697.179z"/>
			<path fill="#7A0511" d="M123.443,693.954l0.013-0.326l3.389-1.571l-0.022,0.558l-0.861,0.396l-0.071,1.753l0.827,0.464    l-0.022,0.55L123.443,693.954z M125.513,693.224l-1.3,0.594l1.248,0.704L125.513,693.224z"/>
		</g>
		<g>
			<path fill="#7A0511" d="M50.073,743.011c-0.6-0.328-1.033-0.345-1.514,0.015l-0.227-0.124l0.467-0.855l4.143,2.266l-0.467,0.854    l-0.227-0.124c0.042-0.599-0.205-0.954-0.805-1.282l-0.365-0.199l-1.425,2.608c-0.229,0.42-0.245,0.642,0.071,0.814    c0,0,0.008,0.005,0.016,0.009l-0.112,0.206l-1.476-0.807l0.113-0.206c0.008,0.005,0.016,0.009,0.016,0.009    c0.324,0.178,0.494,0.04,0.724-0.38l1.425-2.608L50.073,743.011z"/>
			<path fill="#7A0511" d="M57.55,747.401c-0.086-0.602-0.558-1.147-1.28-1.453c-1.098-0.465-2.026-0.072-2.448,0.926    c-0.478,1.129-0.061,2.136,1.028,2.597c1.046,0.443,1.942,0.128,2.174-0.421c0.108-0.256-0.054-0.443-0.005-0.559    c0.03-0.07,0.117-0.087,0.228-0.041c0.221,0.094,0.32,0.382,0.179,0.715c-0.314,0.743-1.464,1.041-2.867,0.447    c-1.463-0.619-2.058-1.893-1.587-3.007c0.475-1.122,1.747-1.569,3.193-0.957c0.562,0.237,0.873,0.497,1.018,0.558    c0.025,0.012,0.082,0.044,0.167,0.08c0.255,0.108,0.511,0.144,0.815,0.136l-0.445,1.052L57.55,747.401z"/>
			<path fill="#7A0511" d="M59.065,750.121l0.695-2.37c-0.104-0.267-0.267-0.402-0.583-0.504l0.066-0.226l1.064,0.312l1.285,3.136    l2.536-2.012l1.064,0.312l-0.066,0.226c-0.009-0.003-0.018-0.006-0.018-0.006c-0.355-0.104-0.5,0.063-0.635,0.522l-0.646,2.201    c-0.135,0.459-0.103,0.678,0.252,0.782c0,0,0.009,0.003,0.018,0.005l-0.066,0.227l-1.622-0.478l0.066-0.226    c0.009,0.003,0.018,0.006,0.018,0.006c0.354,0.104,0.5-0.063,0.635-0.523l0.743-2.53l-2.748,2.143l-1.205-2.98l-0.604,2.055    c-0.166,0.564-0.028,0.885,0.475,1.042l-0.066,0.226l-1.684-0.495l0.066-0.227C58.611,750.88,58.897,750.693,59.065,750.121z"/>
			<path fill="#7A0511" d="M66.071,752.539c-0.033,0.19,0.142,0.366,0.494,0.446l-0.041,0.231l-1.729-0.306l0.041-0.231    c0.521,0.075,0.808-0.165,1.244-0.668l2.368-2.721l1.793,3.866c0.135,0.296,0.353,0.497,0.591,0.582l-0.041,0.231l-1.911-0.338    l0.041-0.231c0.019,0.003,0.027,0.005,0.046,0.008c0.228,0.041,0.395-0.059,0.426-0.231c0.019-0.108-0.014-0.241-0.097-0.409    l-0.333-0.717l-2.257-0.398l-0.345,0.408C66.196,752.255,66.094,752.407,66.071,752.539z M68.84,751.792l-0.792-1.676    l-1.155,1.332L68.84,751.792z"/>
			<path fill="#7A0511" d="M71.692,753.826c0.368,0.027,0.466-0.167,0.502-0.645l0.171-2.295c0.036-0.478-0.032-0.685-0.4-0.712    c0,0-0.01-0.001-0.019-0.001l0.018-0.235l1.676,0.126l-0.017,0.234c-0.01-0.001-0.019-0.001-0.019-0.001    c-0.369-0.028-0.467,0.167-0.502,0.645l-0.139,1.851l2.368-1.685c0.283-0.197,0.435-0.363,0.443-0.488    c0.007-0.092-0.098-0.168-0.31-0.184c-0.009,0-0.028-0.002-0.037-0.003l0.018-0.234l1.659,0.124l-0.018,0.234    c-0.01,0-0.028-0.002-0.037-0.002c-0.368-0.028-0.783,0.186-1.35,0.58l-0.782,0.549l1.146,1.786    c0.299,0.46,0.502,0.72,0.861,0.747l-0.017,0.226l-2.018-0.151l0.017-0.226c0.009,0.001,0.019,0.001,0.037,0.003    c0.239,0.018,0.375-0.064,0.39-0.258c0.009-0.117-0.046-0.247-0.146-0.406l-0.838-1.317l-1.406,0.973l-0.013,0.176    c-0.036,0.478,0.032,0.685,0.401,0.712c0,0,0.009,0.001,0.019,0.002l-0.017,0.226l-1.677-0.125l0.017-0.227    C71.682,753.825,71.692,753.826,71.692,753.826z"/>
			<path fill="#7A0511" d="M82.144,753.332l0.259-0.006l0.026,1.007l-4.315,0.112l-0.006-0.235c0.01,0,0.019,0,0.019,0    c0.37-0.01,0.448-0.213,0.436-0.691l-0.06-2.292c-0.012-0.471-0.091-0.679-0.443-0.67c-0.019,0.001-0.027,0.001-0.046,0.002    l-0.006-0.235l4.315-0.112l0.025,0.974l-0.259,0.007c-0.264-0.539-0.666-0.722-1.35-0.704l-1.516,0.039l0.04,1.537l0.462-0.012    c0.73-0.02,1.068-0.172,1.077-0.533l0.259-0.006l0.032,1.234l-0.259,0.006c-0.019-0.352-0.373-0.494-1.104-0.475l-0.461,0.012    l0.049,1.889l1.515-0.039C81.527,754.121,81.91,753.909,82.144,753.332z"/>
			<path fill="#7A0511" d="M89.045,750.528c0.077,0.592-0.48,1.105-1.568,1.272c0.263,0.085,0.463,0.262,0.689,0.495    c0.572,0.604,0.798,0.98,1.266,0.919c0.119-0.016,0.208-0.052,0.292-0.123l0.134,0.169c-0.228,0.259-0.464,0.375-0.794,0.418    c-0.669,0.087-0.979-0.364-1.479-0.977c-0.444-0.544-0.722-0.821-1.144-0.766l-1.1,0.143l0.139,1.066    c0.061,0.467,0.152,0.667,0.527,0.618c0,0,0.01-0.001,0.019-0.003l0.03,0.233l-1.649,0.216l-0.03-0.233    c0.009-0.001,0.019-0.002,0.019-0.002c0.375-0.05,0.413-0.267,0.352-0.733l-0.296-2.273c-0.061-0.467-0.143-0.668-0.5-0.621    c-0.019,0.002-0.027,0.003-0.046,0.006l-0.03-0.233l2.933-0.383C88.201,749.555,88.955,749.829,89.045,750.528z M85.097,750.196    l0.216,1.658l1.705-0.223c0.77-0.1,1.21-0.514,1.148-0.988c-0.062-0.475-0.585-0.771-1.364-0.67L85.097,750.196z"/>
			<path fill="#7A0511" d="M92.061,751.92c0.316-0.069,0.621,0.113,0.689,0.425c0.066,0.304-0.132,0.605-0.448,0.675    s-0.633-0.128-0.699-0.423C91.538,752.293,91.745,751.989,92.061,751.92z"/>
			<path fill="#7A0511" d="M99.605,748.681c0.38,1.201-0.408,2.42-1.967,2.912c-1.56,0.492-2.883-0.015-3.248-1.168    c-0.38-1.202,0.408-2.42,1.959-2.91C97.909,747.022,99.241,747.526,99.605,748.681z M96.426,747.729    c-1.005,0.317-1.529,1.355-1.2,2.396c0.327,1.033,1.31,1.569,2.35,1.241c0.996-0.314,1.525-1.337,1.194-2.387    C98.446,747.954,97.466,747.4,96.426,747.729z"/>
			<path fill="#7A0511" d="M105.153,745.26c0.242,0.546-0.146,1.196-1.141,1.665c0.276,0.006,0.518,0.119,0.801,0.279    c0.72,0.415,1.044,0.713,1.475,0.521c0.109-0.049,0.184-0.109,0.244-0.201l0.177,0.125c-0.145,0.312-0.339,0.49-0.643,0.625    c-0.616,0.273-1.042-0.07-1.694-0.517c-0.58-0.396-0.926-0.582-1.313-0.409l-1.014,0.449l0.436,0.983    c0.191,0.431,0.335,0.596,0.682,0.442c0,0,0.008-0.004,0.017-0.008l0.095,0.215l-1.52,0.675l-0.096-0.215    c0.009-0.004,0.018-0.007,0.018-0.007c0.346-0.154,0.319-0.372,0.129-0.803l-0.93-2.096c-0.191-0.431-0.327-0.6-0.656-0.454    c-0.017,0.008-0.025,0.011-0.042,0.019l-0.095-0.215l2.702-1.199C104.067,744.565,104.867,744.614,105.153,745.26z     M101.274,746.062l0.678,1.528l1.57-0.697c0.709-0.314,1.014-0.836,0.819-1.273s-0.779-0.573-1.497-0.255L101.274,746.062z"/>
			<path fill="#7A0511" d="M110.093,746.095c-1.352,0.781-2.718,0.542-3.332-0.52c-0.613-1.062-0.152-2.406,1.144-3.155    c0.504-0.291,0.988-0.358,1.356-0.571c0.176-0.102,0.315-0.23,0.454-0.379l0.488,0.845l-0.224,0.13    c-0.609-0.26-1.304-0.207-1.856,0.111c-0.904,0.523-1.173,1.553-0.606,2.534c0.529,0.917,1.658,1.244,2.674,0.657    c0.688-0.398,0.833-0.851,0.517-1.396l-0.214-0.371c-0.176-0.306-0.312-0.393-0.583-0.235c-0.008,0.005-0.017,0.01-0.024,0.014    l-0.118-0.203l1.328-0.768l0.118,0.203c-0.016,0.01-0.024,0.014-0.04,0.023c-0.232,0.135-0.212,0.298-0.04,0.596l0.143,0.247    c0.076,0.132,0.199,0.234,0.418,0.263C111.441,744.956,110.884,745.637,110.093,746.095z"/>
		</g>
		<g>
			<linearGradient id="SVGID_7_" gradientUnits="userSpaceOnUse" x1="47.6694" y1="691.9648" x2="109.9146" y2="691.9648">
				<stop offset="0" style="stop-color:#808285"/>
				<stop offset="1" style="stop-color:#B1B3B6"/>
			</linearGradient>
			<path fill="url(#SVGID_7_)" d="M103.284,686.825h5.931c0.387,0,0.7-0.313,0.7-0.7v-11.726c0-0.254-0.138-0.487-0.359-0.611    l-30.423-16.95c-0.211-0.117-0.47-0.117-0.682,0l-30.422,16.95c-0.222,0.124-0.359,0.357-0.359,0.611v35.129    c0,0.254,0.137,0.488,0.359,0.611l30.422,16.95c0.106,0.06,0.224,0.089,0.341,0.089c0.118,0,0.235-0.029,0.341-0.089l30.423-16.95    c0.222-0.123,0.359-0.357,0.359-0.611v-11.725c0-0.387-0.313-0.7-0.7-0.7h-5.931c-0.322,0-0.604,0.221-0.68,0.534    c-2.571,10.55-12.585,18.208-23.812,18.208c-13.278,0-24.496-10.937-24.496-23.882c0-12.944,11.218-23.881,24.496-23.881    c11.227,0,21.241,7.657,23.812,18.208C102.68,686.604,102.961,686.825,103.284,686.825z"/>
			<linearGradient id="SVGID_8_" gradientUnits="userSpaceOnUse" x1="58.7876" y1="694.9336" x2="99.2456" y2="694.9336">
				<stop offset="0" style="stop-color:#808285"/>
				<stop offset="0.2719" style="stop-color:#8F9194"/>
				<stop offset="0.8266" style="stop-color:#B8BABC"/>
				<stop offset="1" style="stop-color:#C7C8CA"/>
			</linearGradient>
			<path fill="url(#SVGID_8_)" d="M89.566,688.969c-0.514,0.592-0.797,1.347-0.797,2.126c0,0.175,0.017,0.352,0.053,0.555    l0.201,1.971c0.003,0.03,0.008,0.062,0.016,0.092c0.273,1.761,1.809,3.082,3.598,3.082h3.369c1.787,0,3.241-1.454,3.241-3.241    c0-0.086-0.004-0.174-0.013-0.268c0.021-0.107,0.017-0.221-0.016-0.332l-3.794-12.875c-0.004-0.012-0.008-0.024-0.012-0.037    c-0.418-1.343-1.685-2.277-3.093-2.277H65.716c-1.407,0-2.672,0.932-3.092,2.271c-0.005,0.014-0.01,0.028-0.015,0.043    l-3.793,12.875c-0.033,0.111-0.037,0.225-0.016,0.331c-0.008,0.093-0.013,0.182-0.013,0.269c0,1.787,1.454,3.241,3.241,3.241    h3.369c1.789,0,3.325-1.322,3.598-3.085c0.006-0.027,0.011-0.056,0.014-0.084l0.202-1.975c0.037-0.203,0.053-0.38,0.053-0.556    c0-0.769-0.274-1.513-0.774-2.099c-0.01-0.013-0.02-0.024-0.03-0.036l-2.316-2.579c-0.03-0.076-0.045-0.152-0.045-0.226    c0-0.039,0.004-0.08,0.019-0.157l0.715-3.925c0.242-0.461,0.652-0.921,0.831-0.921h5.54c-0.096,1.277-0.272,3.691-0.272,4.15    c0,0.514,0.379,0.978,1.31,1.601c0.699,0.468,1.564,0.925,2.067,1.179l-0.756,20.78c0,1.787,1.454,3.24,3.241,3.24    c0.076,0,0.15-0.003,0.225-0.009c0.074,0.006,0.149,0.009,0.225,0.009c1.787,0,3.241-1.453,3.241-3.266l-0.756-20.755    c0.503-0.254,1.368-0.711,2.067-1.179c0.93-0.622,1.31-1.086,1.31-1.601c0-0.459-0.177-2.873-0.272-4.15h5.54    c0.18,0,0.584,0.453,0.831,0.922l0.721,3.954c0.009,0.048,0.014,0.089,0.014,0.127c0,0.073-0.016,0.148-0.045,0.226    L89.566,688.969z"/>
		</g>
		<g>
			<linearGradient id="SVGID_9_" gradientUnits="userSpaceOnUse" x1="89.417" y1="722.8213" x2="68.1673" y2="661.1077">
				<stop offset="0" style="stop-color:#8B0E1A"/>
				<stop offset="1" style="stop-color:#BE1E2D"/>
			</linearGradient>
			<path fill="url(#SVGID_9_)" d="M109.214,686.125v-11.726l-30.423-16.95l-30.422,16.95v35.129l30.422,16.95l30.423-16.95v-11.725    h-5.931c-2.622,10.756-12.929,18.742-24.492,18.742c-13.575,0-25.195-11.006-25.195-24.582c0-13.575,11.62-24.581,25.195-24.581    c11.563,0,21.871,7.986,24.492,18.742H109.214z"/>
			<linearGradient id="SVGID_10_" gradientUnits="userSpaceOnUse" x1="72.813" y1="709.3906" x2="85.0871" y2="675.6677">
				<stop offset="0" style="stop-color:#BE1E2D"/>
				<stop offset="1" style="stop-color:#7A0511"/>
			</linearGradient>
			<path fill="url(#SVGID_10_)" d="M94.751,680.276L94.751,680.276c-0.313-1.048-1.284-1.813-2.434-1.813H65.716    c-1.15,0-2.121,0.766-2.434,1.813h-0.001l-3.794,12.874l0.033,0.014c-0.02,0.127-0.033,0.256-0.033,0.389    c0,1.403,1.138,2.54,2.541,2.54h3.369c1.488,0,2.715-1.104,2.913-2.538l0.002-0.002l0.004-0.043l0.012-0.117l0.188-1.841    c0.028-0.149,0.047-0.3,0.047-0.457c0-0.638-0.236-1.22-0.625-1.666v-0.001l-1.915-2.132l-0.473-0.526    c-0.095-0.186-0.153-0.393-0.153-0.614c0-0.09,0.01-0.176,0.026-0.261l0.004-0.021l0.426-2.337l0.307-1.688    c0,0,0.672-1.396,1.501-1.396h6.295c0,0-0.327,4.266-0.327,4.851c0,0.266,0.438,0.644,0.998,1.02    c1.001,0.67,2.395,1.332,2.395,1.332l-0.011,0.303l-0.761,20.905c0,1.402,1.137,2.541,2.541,2.541c0.076,0,0.15-0.006,0.225-0.012    c0.074,0.006,0.149,0.012,0.225,0.012c1.403,0,2.541-1.139,2.541-2.541l-0.762-20.905l-0.011-0.303c0,0,1.393-0.662,2.394-1.332    c0.562-0.376,0.999-0.754,0.999-1.02c0-0.585-0.327-4.851-0.327-4.851h6.295c0.829,0,1.502,1.396,1.502,1.396l0.307,1.688    l0.426,2.337l0.004,0.021c0.016,0.085,0.027,0.171,0.027,0.261c0,0.222-0.06,0.429-0.154,0.614l-0.473,0.526l-1.915,2.132v0.001    c-0.388,0.446-0.625,1.028-0.625,1.666c0,0.157,0.019,0.308,0.046,0.457l0.188,1.841l0.012,0.117l0.004,0.043l0.002,0.002    c0.198,1.434,1.425,2.538,2.914,2.538h3.369c1.403,0,2.541-1.137,2.541-2.54c0-0.133-0.014-0.262-0.032-0.389l0.032-0.014    L94.751,680.276z"/>
		</g>
		<g>
			<path fill="#6A0006" d="M79.722,717.945c11.563,0,21.87-7.985,24.492-18.742h5v-1.399h-5.931    c-2.622,10.756-12.929,18.742-24.492,18.742c-8.411,0-16.068-4.228-20.68-10.672C62.575,713.099,70.716,717.945,79.722,717.945z"/>
			<path fill="#6A0006" d="M103.284,686.125h0.535c-0.746-2.385-1.872-4.613-3.305-6.628    C101.762,681.536,102.708,683.764,103.284,686.125z"/>
			<polygon fill="#6A0006" points="79.722,658.85 109.214,675.281 109.214,674.399 78.792,657.449 48.369,674.399 48.369,709.528     49.3,710.047 49.3,675.8   "/>
			<path fill="#6A0006" d="M90.65,694.953l-0.004-0.043l-0.012-0.117l-0.188-1.842c-0.027-0.148-0.046-0.3-0.046-0.457    c0-0.638,0.237-1.219,0.625-1.666l0,0l1.915-2.133l0.473-0.525c0.095-0.186,0.154-0.393,0.154-0.615    c0-0.089-0.01-0.176-0.027-0.26l-0.004-0.022l-0.426-2.337l-0.307-1.687c0,0-0.364-0.753-0.886-1.153l0.262,1.44l0.426,2.337    l0.004,0.021c0.016,0.085,0.027,0.171,0.027,0.261c0,0.222-0.06,0.429-0.154,0.614l-0.473,0.526l-1.915,2.132v0.001    c-0.388,0.446-0.625,1.028-0.625,1.666c0,0.157,0.019,0.308,0.046,0.457l0.188,1.841l0.012,0.117l0.004,0.043l0.002,0.002    c0.103,0.744,0.484,1.396,1.033,1.855c-0.045-0.147-0.081-0.3-0.103-0.456L90.65,694.953z"/>
			<path fill="#6A0006" d="M77.942,689.357l0.011-0.304c0,0,0,0-0.931-1.399l-0.772,21.208c0,0.828,0.398,1.562,1.011,2.025    c-0.051-0.201-0.081-0.409-0.081-0.625L77.942,689.357z"/>
			<path fill="#6A0006" d="M60.452,694.563l-0.033-0.013l3.794-12.875l0.001,0.001c0.312-1.049,1.283-1.813,2.434-1.813h26.601    c0.577,0,1.109,0.193,1.535,0.518l-0.031-0.104l0,0c-0.313-1.048-1.284-1.813-2.434-1.813H65.716c-1.15,0-2.121,0.766-2.434,1.813    h-0.001l-3.794,12.874l0.033,0.014c-0.02,0.127-0.033,0.256-0.033,0.389c0,0.828,0.398,1.562,1.012,2.025    c-0.051-0.2-0.081-0.409-0.081-0.625C60.418,694.82,60.431,694.691,60.452,694.563z"/>
			<path fill="#6A0006" d="M73.958,680.452c-0.096,1.3-0.327,4.486-0.327,4.851c0,0.258,0.412,0.619,0.947,0.983    c0.066-1.238,0.311-4.435,0.311-4.435L73.958,680.452z"/>
		</g>
		<g>
			<ellipse fill="#414042" cx="124.636" cy="684.637" rx="2.286" ry="2.313"/>
			<linearGradient id="SVGID_11_" gradientUnits="userSpaceOnUse" x1="122.3477" y1="683.749" x2="126.702" y2="685.3339">
				<stop offset="0" style="stop-color:#BCBEC0"/>
				<stop offset="1" style="stop-color:#58595B"/>
			</linearGradient>
			<circle fill="url(#SVGID_11_)" cx="124.524" cy="684.541" r="2.316"/>
			<polygon fill="#6D6E71" points="125.629,683.521 124.641,684.098 124.064,683.109 123.503,683.437 124.08,684.425     123.092,685.002 123.419,685.562 124.408,684.985 124.984,685.974 125.545,685.646 124.968,684.658 125.957,684.082   "/>
		</g>
		<g>
			<circle fill="#808285" cx="32.889" cy="684.659" r="2.328"/>
			<linearGradient id="SVGID_12_" gradientUnits="userSpaceOnUse" x1="30.6226" y1="683.749" x2="34.9769" y2="685.3339">
				<stop offset="0" style="stop-color:#FFFFFF"/>
				<stop offset="1" style="stop-color:#939598"/>
			</linearGradient>
			<circle fill="url(#SVGID_12_)" cx="32.8" cy="684.541" r="2.316"/>
			<polygon fill="#9D9FA2" points="34.301,684.453 33.171,684.271 33.353,683.143 32.711,683.039 32.531,684.169 31.4,683.988     31.298,684.629 32.427,684.811 32.247,685.939 32.888,686.043 33.069,684.913 34.199,685.094   "/>
		</g>
		<g>
			<circle fill="#6D6E71" cx="62.142" cy="735.228" r="2.327"/>
			<linearGradient id="SVGID_13_" gradientUnits="userSpaceOnUse" x1="59.8838" y1="734.3477" x2="64.2381" y2="735.9325">
				<stop offset="0" style="stop-color:#E6E7E8"/>
				<stop offset="1" style="stop-color:#808285"/>
			</linearGradient>
			<circle fill="url(#SVGID_13_)" cx="62.061" cy="735.141" r="2.316"/>
			<polygon fill="#8A8C8E" points="63.537,735.431 62.488,734.974 62.946,733.925 62.351,733.665 61.893,734.714 60.844,734.255     60.584,734.851 61.633,735.309 61.175,736.356 61.771,736.616 62.228,735.568 63.277,736.026   "/>
		</g>
	</g>
	<g id="horizontal_bar">
		<g id="tcmpp_bounding_box">
			<linearGradient id="SVGID_14_" gradientUnits="userSpaceOnUse" x1="24.8179" y1="367.6592" x2="590.1855" y2="367.6592">
				<stop offset="0" style="stop-color:#F2F2F2"/>
				<stop offset="1" style="stop-color:#CCCCCC"/>
			</linearGradient>
			<rect x="24.818" y="357.6" fill="url(#SVGID_14_)" stroke="#000000" stroke-width="0.0995" width="565.368" height="20.119"/>
			<linearGradient id="SVGID_15_" gradientUnits="userSpaceOnUse" x1="27.1992" y1="376.2549" x2="27.1992" y2="359.0635">
				<stop offset="0" style="stop-color:#F2F2F2"/>
				<stop offset="1" style="stop-color:#999999"/>
			</linearGradient>
			<polygon fill="url(#SVGID_15_)" points="28.339,361.445 26.059,359.063 26.059,376.255 28.339,373.873  "/>
			<linearGradient id="SVGID_16_" gradientUnits="userSpaceOnUse" x1="26.0591" y1="360.2544" x2="588.9443" y2="360.2544">
				<stop offset="0" style="stop-color:#808285"/>
				<stop offset="1" style="stop-color:#FFFFFF"/>
			</linearGradient>
			<polygon fill="url(#SVGID_16_)" points="586.664,361.445 588.944,359.063 26.059,359.063 28.339,361.445  "/>
			<linearGradient id="SVGID_17_" gradientUnits="userSpaceOnUse" x1="26.0591" y1="375.064" x2="588.9443" y2="375.064">
				<stop offset="0" style="stop-color:#B3B3B3"/>
				<stop offset="1" style="stop-color:#FFFFFF"/>
			</linearGradient>
			<polygon fill="url(#SVGID_17_)" points="28.339,373.873 26.059,376.255 588.944,376.255 586.664,373.873  "/>
			<linearGradient id="SVGID_18_" gradientUnits="userSpaceOnUse" x1="587.8047" y1="376.2549" x2="587.8047" y2="359.0635">
				<stop offset="0" style="stop-color:#F2F2F2"/>
				<stop offset="1" style="stop-color:#999999"/>
			</linearGradient>
			<polygon fill="url(#SVGID_18_)" points="586.664,361.445 586.664,373.873 588.944,376.255 588.944,359.063  "/>
			<linearGradient id="SVGID_19_" gradientUnits="userSpaceOnUse" x1="28.3394" y1="367.6592" x2="586.6641" y2="367.6592">
				<stop offset="0" style="stop-color:#F2F2F2"/>
				<stop offset="1" style="stop-color:#CCCCCC"/>
			</linearGradient>
			<rect x="28.339" y="361.445" fill="url(#SVGID_19_)" width="558.325" height="12.428"/>
		</g>
		<g id="tc-maker-project-portfolio">
			<g>
				<path fill="#A93533" d="M417.218,365.69h-2.288v-0.754h5.421v0.754h-2.288v4.667h-0.845V365.69z"/>
				<path fill="#A93533" d="M423.627,370.526c-1.925,0-3.276-1.222-3.276-2.86c0-1.638,1.352-2.874,3.276-2.874    c1.195,0,2.197,0.468,2.782,1.274l-0.677,0.468c-0.441-0.611-1.195-0.962-2.105-0.962c-1.404,0-2.405,0.897-2.405,2.08    s1.014,2.08,2.405,2.08c0.975,0,1.689-0.377,2.249-1.17l0.676,0.468C425.94,369.993,424.914,370.526,423.627,370.526z"/>
			</g>
			<g>
				<path fill="#A93533" d="M432.293,364.936h0.702l2.224,3.172l2.223-3.172h0.702v5.421h-0.845v-3.9l-2.08,3.017l-2.08-3.017v3.9    h-0.846V364.936z"/>
				<path fill="#A93533" d="M441.705,364.936h0.533l2.782,5.421h-0.91l-0.702-1.378h-2.859l-0.702,1.378h-0.897L441.705,364.936z     M443.031,368.264l-1.053-2.08l-1.066,2.08H443.031z"/>
				<path fill="#A93533" d="M445.826,364.949h0.846v2.405l2.873-2.405h1.118l-2.275,1.924l2.613,3.484h-0.949l-2.262-2.99    l-1.118,0.949v2.041h-0.846V364.949z"/>
				<path fill="#A93533" d="M451.975,364.936h5.083v0.793h-4.237v1.352h2.781v0.78h-2.781v1.716h4.472v0.78h-5.317V364.936z"/>
				<path fill="#A93533" d="M459.347,370.357h-0.845v-5.408h3.73c1.105,0,1.769,0.559,1.769,1.508c0,0.754-0.521,1.391-1.339,1.521    l1.508,2.379h-0.923l-1.534-2.366h-2.366V370.357z M462.232,367.198c0.585,0,0.897-0.26,0.897-0.741    c0-0.468-0.312-0.728-0.897-0.728h-2.886v1.469H462.232z"/>
				<path fill="#A93533" d="M470.695,370.357h-0.846v-5.421h3.939c1.118,0,1.769,0.559,1.769,1.508c0,0.858-0.624,1.547-1.678,1.547    h-3.185V370.357z M473.789,367.198c0.585,0,0.897-0.273,0.897-0.741c0-0.455-0.299-0.728-0.858-0.728h-3.133v1.469H473.789z"/>
				<path fill="#A93533" d="M477.599,370.357h-0.845v-5.408h3.73c1.105,0,1.769,0.559,1.769,1.508c0,0.754-0.521,1.391-1.339,1.521    l1.508,2.379h-0.923l-1.534-2.366h-2.366V370.357z M480.484,367.198c0.585,0,0.897-0.26,0.897-0.741    c0-0.468-0.312-0.728-0.897-0.728h-2.886v1.469H480.484z"/>
				<path fill="#A93533" d="M483.305,367.653c0-1.612,1.326-2.86,3.315-2.86c2.002,0,3.328,1.235,3.328,2.86    c0,1.612-1.326,2.873-3.328,2.873C484.631,370.526,483.305,369.252,483.305,367.653z M489.077,367.653    c0-1.157-0.962-2.08-2.457-2.08c-1.482,0-2.444,0.91-2.444,2.08s0.962,2.08,2.444,2.08    C488.128,369.733,489.077,368.81,489.077,367.653z"/>
				<path fill="#A93533" d="M491.547,368.043v0.572c0,0.793,0.494,1.131,1.547,1.131c1.118,0,1.404-0.39,1.404-1.586v-3.211h0.845    v3.484c0,1.508-0.676,2.093-2.353,2.093c-1.534,0-2.289-0.572-2.289-1.794v-0.689H491.547z"/>
				<path fill="#A93533" d="M497.11,364.936h5.083v0.793h-4.238v1.352h2.782v0.78h-2.782v1.716h4.473v0.78h-5.317V364.936z"/>
				<path fill="#A93533" d="M506.432,370.526c-1.925,0-3.276-1.222-3.276-2.86c0-1.638,1.352-2.874,3.276-2.874    c1.195,0,2.197,0.468,2.782,1.274l-0.677,0.468c-0.441-0.611-1.195-0.962-2.105-0.962c-1.404,0-2.405,0.897-2.405,2.08    s1.014,2.08,2.405,2.08c0.975,0,1.689-0.377,2.249-1.17l0.676,0.468C508.745,369.993,507.719,370.526,506.432,370.526z"/>
				<path fill="#A93533" d="M512.061,365.69h-2.288v-0.754h5.421v0.754h-2.288v4.667h-0.845V365.69z"/>
				<path fill="#A93533" d="M521.199,370.357h-0.846v-5.421h3.939c1.118,0,1.769,0.559,1.769,1.508c0,0.858-0.624,1.547-1.678,1.547    h-3.185V370.357z M524.293,367.198c0.585,0,0.897-0.273,0.897-0.741c0-0.455-0.299-0.728-0.858-0.728h-3.133v1.469H524.293z"/>
				<path fill="#A93533" d="M526.776,367.653c0-1.612,1.326-2.86,3.315-2.86c2.002,0,3.328,1.235,3.328,2.86    c0,1.612-1.326,2.873-3.328,2.873C528.103,370.526,526.776,369.252,526.776,367.653z M532.549,367.653    c0-1.157-0.962-2.08-2.457-2.08c-1.482,0-2.444,0.91-2.444,2.08s0.962,2.08,2.444,2.08    C531.6,369.733,532.549,368.81,532.549,367.653z"/>
				<path fill="#A93533" d="M535.643,370.357h-0.846v-5.408h3.731c1.105,0,1.769,0.559,1.769,1.508c0,0.754-0.521,1.391-1.34,1.521    l1.509,2.379h-0.923l-1.534-2.366h-2.366V370.357z M538.528,367.198c0.585,0,0.897-0.26,0.897-0.741    c0-0.468-0.312-0.728-0.897-0.728h-2.886v1.469H538.528z"/>
				<path fill="#A93533" d="M543.104,365.69h-2.288v-0.754h5.421v0.754h-2.288v4.667h-0.845V365.69z"/>
				<path fill="#A93533" d="M547.914,370.357h-0.845v-5.421h5.005v0.793h-4.16v1.352h2.691v0.78h-2.691V370.357z"/>
				<path fill="#A93533" d="M552.698,367.653c0-1.612,1.326-2.86,3.315-2.86c2.002,0,3.328,1.235,3.328,2.86    c0,1.612-1.326,2.873-3.328,2.873C554.024,370.526,552.698,369.252,552.698,367.653z M558.471,367.653    c0-1.157-0.962-2.08-2.457-2.08c-1.482,0-2.444,0.91-2.444,2.08s0.962,2.08,2.444,2.08    C557.521,369.733,558.471,368.81,558.471,367.653z"/>
				<path fill="#A93533" d="M560.706,364.936h0.845v4.641h4.03v0.78h-4.875V364.936z"/>
				<path fill="#A93533" d="M566.543,364.923h0.857v5.447h-0.857V364.923z"/>
				<path fill="#A93533" d="M568.792,367.653c0-1.612,1.326-2.86,3.315-2.86c2.002,0,3.328,1.235,3.328,2.86    c0,1.612-1.326,2.873-3.328,2.873C570.118,370.526,568.792,369.252,568.792,367.653z M574.564,367.653    c0-1.157-0.962-2.08-2.457-2.08c-1.482,0-2.444,0.91-2.444,2.08s0.962,2.08,2.444,2.08    C573.615,369.733,574.564,368.81,574.564,367.653z"/>
			</g>
		</g>
		<g id="left_screws">
			<g>
				<circle fill="#808285" cx="35.874" cy="367.712" r="2.328"/>
				<linearGradient id="SVGID_20_" gradientUnits="userSpaceOnUse" x1="33.6079" y1="366.8022" x2="37.9622" y2="368.3871">
					<stop offset="0" style="stop-color:#FFFFFF"/>
					<stop offset="1" style="stop-color:#939598"/>
				</linearGradient>
				<circle fill="url(#SVGID_20_)" cx="35.785" cy="367.594" r="2.316"/>
				<polygon fill="#9D9FA2" points="37.287,367.506 36.157,367.325 36.338,366.196 35.697,366.092 35.516,367.222 34.386,367.042     34.283,367.682 35.413,367.864 35.232,368.993 35.873,369.096 36.054,367.966 37.184,368.147   "/>
			</g>
			<g>
				<circle fill="#808285" cx="50.193" cy="367.712" r="2.328"/>
				<linearGradient id="SVGID_21_" gradientUnits="userSpaceOnUse" x1="47.9263" y1="366.8018" x2="52.2806" y2="368.3866">
					<stop offset="0" style="stop-color:#FFFFFF"/>
					<stop offset="1" style="stop-color:#939598"/>
				</linearGradient>
				<circle fill="url(#SVGID_21_)" cx="50.104" cy="367.594" r="2.316"/>
				<polygon fill="#9D9FA2" points="51.524,367.102 50.388,367.234 50.255,366.098 49.61,366.173 49.744,367.31 48.607,367.444     48.682,368.087 49.819,367.956 49.952,369.091 50.597,369.016 50.463,367.879 51.6,367.746   "/>
			</g>
			<g>
				<circle fill="#808285" cx="64.512" cy="367.712" r="2.328"/>
				<linearGradient id="SVGID_22_" gradientUnits="userSpaceOnUse" x1="62.2451" y1="366.8018" x2="66.5995" y2="368.3866">
					<stop offset="0" style="stop-color:#FFFFFF"/>
					<stop offset="1" style="stop-color:#939598"/>
				</linearGradient>
				<circle fill="url(#SVGID_22_)" cx="64.423" cy="367.594" r="2.316"/>
				<polygon fill="#9D9FA2" points="65.14,366.272 64.389,367.135 63.526,366.385 63.1,366.875 63.964,367.625 63.214,368.49     63.705,368.916 64.455,368.052 65.318,368.801 65.745,368.312 64.88,367.562 65.629,366.697   "/>
			</g>
			<g>
				<circle fill="#808285" cx="78.83" cy="367.712" r="2.328"/>
				<linearGradient id="SVGID_23_" gradientUnits="userSpaceOnUse" x1="76.5635" y1="366.8018" x2="80.9178" y2="368.3866">
					<stop offset="0" style="stop-color:#FFFFFF"/>
					<stop offset="1" style="stop-color:#939598"/>
				</linearGradient>
				<circle fill="url(#SVGID_23_)" cx="78.741" cy="367.594" r="2.316"/>
				<polygon fill="#9D9FA2" points="80.166,367.113 79.028,367.236 78.906,366.1 78.26,366.169 78.384,367.307 77.246,367.432     77.316,368.076 78.454,367.953 78.577,369.089 79.224,369.02 79.1,367.882 80.237,367.758   "/>
			</g>
			<g>
				<circle fill="#808285" cx="93.149" cy="367.712" r="2.328"/>
				<linearGradient id="SVGID_24_" gradientUnits="userSpaceOnUse" x1="90.8828" y1="366.8018" x2="95.2372" y2="368.3866">
					<stop offset="0" style="stop-color:#FFFFFF"/>
					<stop offset="1" style="stop-color:#939598"/>
				</linearGradient>
				<circle fill="url(#SVGID_24_)" cx="93.06" cy="367.594" r="2.316"/>
				<polygon fill="#9D9FA2" points="94.563,367.646 93.456,367.36 93.742,366.253 93.112,366.09 92.827,367.198 91.719,366.913     91.557,367.542 92.665,367.828 92.379,368.934 93.008,369.097 93.293,367.989 94.402,368.275   "/>
			</g>
			<g>
				<circle fill="#808285" cx="107.468" cy="367.712" r="2.328"/>
				<linearGradient id="SVGID_25_" gradientUnits="userSpaceOnUse" x1="105.2012" y1="366.8018" x2="109.5555" y2="368.3866">
					<stop offset="0" style="stop-color:#FFFFFF"/>
					<stop offset="1" style="stop-color:#939598"/>
				</linearGradient>
				<circle fill="url(#SVGID_25_)" cx="107.379" cy="367.594" r="2.316"/>
				<polygon fill="#9D9FA2" points="107.865,369.018 107.738,367.88 108.875,367.754 108.802,367.109 107.666,367.236     107.538,366.098 106.893,366.17 107.02,367.308 105.883,367.435 105.955,368.081 107.092,367.953 107.22,369.09   "/>
			</g>
			<g>
				<circle fill="#808285" cx="121.787" cy="367.712" r="2.328"/>
				<linearGradient id="SVGID_26_" gradientUnits="userSpaceOnUse" x1="119.521" y1="366.8022" x2="123.8753" y2="368.3871">
					<stop offset="0" style="stop-color:#FFFFFF"/>
					<stop offset="1" style="stop-color:#939598"/>
				</linearGradient>
				<circle fill="url(#SVGID_26_)" cx="121.698" cy="367.594" r="2.316"/>
				<polygon fill="#9D9FA2" points="122.815,366.588 121.82,367.151 121.256,366.157 120.69,366.477 121.255,367.472 120.259,368.037     120.58,368.601 121.575,368.037 122.139,369.032 122.705,368.712 122.141,367.716 123.135,367.152   "/>
			</g>
		</g>
		<g id="left_title_screw">
			<circle fill="#808285" cx="408.391" cy="367.712" r="2.328"/>
			<linearGradient id="SVGID_27_" gradientUnits="userSpaceOnUse" x1="406.124" y1="366.8018" x2="410.4784" y2="368.3866">
				<stop offset="0" style="stop-color:#FFFFFF"/>
				<stop offset="1" style="stop-color:#939598"/>
			</linearGradient>
			<circle fill="url(#SVGID_27_)" cx="408.302" cy="367.594" r="2.315"/>
			<polygon fill="#9D9FA2" points="409.419,366.588 408.424,367.151 407.86,366.157 407.294,366.477 407.859,367.472 406.863,368.037    407.184,368.601 408.179,368.037 408.743,369.032 409.309,368.712 408.745,367.716 409.739,367.152  "/>
		</g>
		<g id="right_title_screw">
			<circle fill="#808285" cx="580.746" cy="367.712" r="2.328"/>
			<linearGradient id="SVGID_28_" gradientUnits="userSpaceOnUse" x1="578.4805" y1="366.8022" x2="582.8339" y2="368.3867">
				<stop offset="0" style="stop-color:#FFFFFF"/>
				<stop offset="1" style="stop-color:#939598"/>
			</linearGradient>
			<circle fill="url(#SVGID_28_)" cx="580.657" cy="367.594" r="2.315"/>
			<polygon fill="#9D9FA2" points="581.774,366.588 580.779,367.151 580.216,366.157 579.649,366.477 580.215,367.472    579.219,368.037 579.539,368.601 580.534,368.037 581.099,369.032 581.664,368.712 581.101,367.716 582.095,367.152  "/>
		</g>
	</g>
</svg>
